<mxfile host="app.diagrams.net" modified="2024-02-25T14:06:52.223Z" agent="Mozilla/5.0 (Windows NT 10.0; Win64; x64) AppleWebKit/537.36 (KHTML, like Gecko) Chrome/121.0.0.0 Safari/537.36" etag="wBRCiBMZ-F2Z8LOhK8Ww" version="23.1.6" type="device">
  <diagram name="Page-1" id="YpYDb_VQqJkoEzUv8HHL">
    <mxGraphModel dx="765" dy="407" grid="1" gridSize="10" guides="1" tooltips="1" connect="1" arrows="1" fold="1" page="1" pageScale="1" pageWidth="850" pageHeight="1100" math="0" shadow="0">
      <root>
        <mxCell id="0" />
        <mxCell id="1" parent="0" />
        <mxCell id="JhAX-qCylaHRJ1zWuyPO-1" value="User" style="shape=umlLifeline;perimeter=lifelinePerimeter;whiteSpace=wrap;html=1;container=1;dropTarget=0;collapsible=0;recursiveResize=0;outlineConnect=0;portConstraint=eastwest;newEdgeStyle={&quot;curved&quot;:0,&quot;rounded&quot;:0};" vertex="1" parent="1">
          <mxGeometry x="90" y="70" width="100" height="450" as="geometry" />
        </mxCell>
        <mxCell id="JhAX-qCylaHRJ1zWuyPO-2" value="" style="html=1;points=[[0,0,0,0,5],[0,1,0,0,-5],[1,0,0,0,5],[1,1,0,0,-5]];perimeter=orthogonalPerimeter;outlineConnect=0;targetShapes=umlLifeline;portConstraint=eastwest;newEdgeStyle={&quot;curved&quot;:0,&quot;rounded&quot;:0};" vertex="1" parent="JhAX-qCylaHRJ1zWuyPO-1">
          <mxGeometry x="45" y="350" width="10" height="80" as="geometry" />
        </mxCell>
        <mxCell id="JhAX-qCylaHRJ1zWuyPO-3" value="Weather Instance" style="shape=umlLifeline;perimeter=lifelinePerimeter;whiteSpace=wrap;html=1;container=1;dropTarget=0;collapsible=0;recursiveResize=0;outlineConnect=0;portConstraint=eastwest;newEdgeStyle={&quot;curved&quot;:0,&quot;rounded&quot;:0};" vertex="1" parent="1">
          <mxGeometry x="270" y="70" width="100" height="450" as="geometry" />
        </mxCell>
        <mxCell id="JhAX-qCylaHRJ1zWuyPO-4" value="" style="html=1;points=[[0,0,0,0,5],[0,1,0,0,-5],[1,0,0,0,5],[1,1,0,0,-5]];perimeter=orthogonalPerimeter;outlineConnect=0;targetShapes=umlLifeline;portConstraint=eastwest;newEdgeStyle={&quot;curved&quot;:0,&quot;rounded&quot;:0};" vertex="1" parent="JhAX-qCylaHRJ1zWuyPO-3">
          <mxGeometry x="45" y="90" width="10" height="260" as="geometry" />
        </mxCell>
        <mxCell id="JhAX-qCylaHRJ1zWuyPO-5" value="WeatherAPI" style="shape=umlLifeline;perimeter=lifelinePerimeter;whiteSpace=wrap;html=1;container=1;dropTarget=0;collapsible=0;recursiveResize=0;outlineConnect=0;portConstraint=eastwest;newEdgeStyle={&quot;curved&quot;:0,&quot;rounded&quot;:0};" vertex="1" parent="1">
          <mxGeometry x="450" y="70" width="100" height="450" as="geometry" />
        </mxCell>
        <mxCell id="JhAX-qCylaHRJ1zWuyPO-6" value="" style="html=1;points=[[0,0,0,0,5],[0,1,0,0,-5],[1,0,0,0,5],[1,1,0,0,-5]];perimeter=orthogonalPerimeter;outlineConnect=0;targetShapes=umlLifeline;portConstraint=eastwest;newEdgeStyle={&quot;curved&quot;:0,&quot;rounded&quot;:0};" vertex="1" parent="JhAX-qCylaHRJ1zWuyPO-5">
          <mxGeometry x="45" y="90" width="10" height="300" as="geometry" />
        </mxCell>
        <mxCell id="JhAX-qCylaHRJ1zWuyPO-7" value="SunInfo" style="shape=umlLifeline;perimeter=lifelinePerimeter;whiteSpace=wrap;html=1;container=1;dropTarget=0;collapsible=0;recursiveResize=0;outlineConnect=0;portConstraint=eastwest;newEdgeStyle={&quot;curved&quot;:0,&quot;rounded&quot;:0};" vertex="1" parent="1">
          <mxGeometry x="630" y="70" width="100" height="450" as="geometry" />
        </mxCell>
        <mxCell id="JhAX-qCylaHRJ1zWuyPO-8" value="" style="html=1;points=[[0,0,0,0,5],[0,1,0,0,-5],[1,0,0,0,5],[1,1,0,0,-5]];perimeter=orthogonalPerimeter;outlineConnect=0;targetShapes=umlLifeline;portConstraint=eastwest;newEdgeStyle={&quot;curved&quot;:0,&quot;rounded&quot;:0};" vertex="1" parent="JhAX-qCylaHRJ1zWuyPO-7">
          <mxGeometry x="45" y="340" width="10" height="70" as="geometry" />
        </mxCell>
        <mxCell id="JhAX-qCylaHRJ1zWuyPO-9" value="APICall()" style="html=1;verticalAlign=bottom;endArrow=block;curved=0;rounded=0;" edge="1" parent="1">
          <mxGeometry width="80" relative="1" as="geometry">
            <mxPoint x="320" y="200" as="sourcePoint" />
            <mxPoint x="499.5" y="200" as="targetPoint" />
          </mxGeometry>
        </mxCell>
        <mxCell id="JhAX-qCylaHRJ1zWuyPO-10" value="setSunrise_Time()" style="html=1;verticalAlign=bottom;endArrow=open;endSize=8;curved=0;rounded=0;" edge="1" parent="1" target="JhAX-qCylaHRJ1zWuyPO-7">
          <mxGeometry relative="1" as="geometry">
            <mxPoint x="505.5" y="420" as="sourcePoint" />
            <mxPoint x="330" y="420" as="targetPoint" />
          </mxGeometry>
        </mxCell>
        <mxCell id="JhAX-qCylaHRJ1zWuyPO-11" value="alt" style="shape=umlFrame;whiteSpace=wrap;html=1;pointerEvents=0;width=30;height=30;" vertex="1" parent="1">
          <mxGeometry x="220" y="220" width="570" height="180" as="geometry" />
        </mxCell>
        <mxCell id="JhAX-qCylaHRJ1zWuyPO-12" value="" style="line;strokeWidth=1;fillColor=none;align=left;verticalAlign=middle;spacingTop=-1;spacingLeft=3;spacingRight=3;rotatable=0;labelPosition=right;points=[];portConstraint=eastwest;strokeColor=inherit;dashed=1;dashPattern=8 8;" vertex="1" parent="1">
          <mxGeometry x="220" y="316" width="570" height="8" as="geometry" />
        </mxCell>
        <mxCell id="JhAX-qCylaHRJ1zWuyPO-13" value="getLongitude()" style="html=1;verticalAlign=bottom;endArrow=open;dashed=1;endSize=8;curved=0;rounded=0;" edge="1" parent="1">
          <mxGeometry relative="1" as="geometry">
            <mxPoint x="500.33" y="270" as="sourcePoint" />
            <mxPoint x="320" y="270" as="targetPoint" />
          </mxGeometry>
        </mxCell>
        <mxCell id="JhAX-qCylaHRJ1zWuyPO-14" value="getLatitude()" style="html=1;verticalAlign=bottom;endArrow=open;dashed=1;endSize=8;curved=0;rounded=0;" edge="1" parent="1">
          <mxGeometry relative="1" as="geometry">
            <mxPoint x="500.33" y="290" as="sourcePoint" />
            <mxPoint x="320" y="290" as="targetPoint" />
          </mxGeometry>
        </mxCell>
        <mxCell id="JhAX-qCylaHRJ1zWuyPO-15" value="getCountry()" style="html=1;verticalAlign=bottom;endArrow=open;dashed=1;endSize=8;curved=0;rounded=0;" edge="1" parent="1">
          <mxGeometry relative="1" as="geometry">
            <mxPoint x="500.3299999999999" y="360" as="sourcePoint" />
            <mxPoint x="320" y="360" as="targetPoint" />
          </mxGeometry>
        </mxCell>
        <mxCell id="JhAX-qCylaHRJ1zWuyPO-16" value="getCity()" style="html=1;verticalAlign=bottom;endArrow=open;dashed=1;endSize=8;curved=0;rounded=0;" edge="1" parent="1">
          <mxGeometry relative="1" as="geometry">
            <mxPoint x="500.3299999999999" y="380" as="sourcePoint" />
            <mxPoint x="320" y="380" as="targetPoint" />
          </mxGeometry>
        </mxCell>
        <mxCell id="JhAX-qCylaHRJ1zWuyPO-17" value="Location was entered using Longitude/Latitude" style="text;align=center;fontStyle=1;verticalAlign=middle;spacingLeft=3;spacingRight=3;strokeColor=none;rotatable=0;points=[[0,0.5],[1,0.5]];portConstraint=eastwest;html=1;" vertex="1" parent="1">
          <mxGeometry x="350" y="220" width="80" height="26" as="geometry" />
        </mxCell>
        <mxCell id="JhAX-qCylaHRJ1zWuyPO-18" value="Location was entered using Country/City name" style="text;align=center;fontStyle=1;verticalAlign=middle;spacingLeft=3;spacingRight=3;strokeColor=none;rotatable=0;points=[[0,0.5],[1,0.5]];portConstraint=eastwest;html=1;" vertex="1" parent="1">
          <mxGeometry x="330" y="316" width="80" height="26" as="geometry" />
        </mxCell>
        <mxCell id="JhAX-qCylaHRJ1zWuyPO-20" value="DisplaySunInfo()" style="html=1;verticalAlign=bottom;endArrow=block;curved=0;rounded=0;exitX=0;exitY=1;exitDx=0;exitDy=-5;exitPerimeter=0;" edge="1" parent="1" target="JhAX-qCylaHRJ1zWuyPO-2" source="JhAX-qCylaHRJ1zWuyPO-8">
          <mxGeometry x="0.0008" width="80" relative="1" as="geometry">
            <mxPoint x="320" y="460" as="sourcePoint" />
            <mxPoint x="160" y="460" as="targetPoint" />
            <mxPoint as="offset" />
          </mxGeometry>
        </mxCell>
        <mxCell id="JhAX-qCylaHRJ1zWuyPO-21" value="setSunset_Time()" style="html=1;verticalAlign=bottom;endArrow=open;endSize=8;curved=0;rounded=0;" edge="1" parent="1">
          <mxGeometry relative="1" as="geometry">
            <mxPoint x="505.5" y="440" as="sourcePoint" />
            <mxPoint x="679.4999999999998" y="440" as="targetPoint" />
          </mxGeometry>
        </mxCell>
      </root>
    </mxGraphModel>
  </diagram>
</mxfile>
